<svg width="53" height="48" viewBox="0 0 53 48" fill="none" xmlns="http://www.w3.org/2000/svg">
<path d="M36.0554 29H34.7518L33.9165 25.877V22C33.9144 20.3182 33.2648 18.6932 32.0865 17.4225C30.9082 16.1518 29.2801 15.3203 27.4999 15.08V14H25.361V15.08C23.5808 15.3203 21.9526 16.1518 20.7743 17.4225C19.596 18.6932 18.9464 20.3182 18.9443 22V25.877L18.1091 29H16.8054V31H22.3045C22.5379 31.8576 23.0703 32.618 23.8175 33.1611C24.5646 33.7042 25.484 33.9991 26.4304 33.9991C27.3768 33.9991 28.2962 33.7042 29.0434 33.1611C29.7906 32.618 30.3229 31.8576 30.5563 31H36.0554V29ZM21.0511 26.243L21.0832 22C21.0832 20.6739 21.6466 19.4021 22.6494 18.4645C23.6522 17.5268 25.0122 17 26.4304 17C27.8486 17 29.2087 17.5268 30.2115 18.4645C31.2143 19.4021 31.7776 20.6739 31.7776 22V26L32.5562 29H20.3143L21.0511 26.243ZM26.4304 32C26.0566 31.9989 25.6897 31.906 25.3665 31.7305C25.0433 31.555 24.7751 31.303 24.5888 31H28.272C28.0858 31.303 27.8176 31.555 27.4943 31.7305C27.1711 31.906 26.8042 31.9989 26.4304 32V32Z" fill="#9A9AB0"/>
</svg>
